<svg xmlns="http://www.w3.org/2000/svg" xmlns:xlink="http://www.w3.org/1999/xlink" viewBox="0 0 370 150">
  <defs>
    <style>
      .cls-1 {
        clip-path: url(#clip-Custom_Size_1);
      }

      .cls-10, .cls-12, .cls-2, .cls-4, .cls-6, .cls-8 {
        fill: none;
      }

      .cls-2 {
        stroke: #707070;
      }

      .cls-13, .cls-3, .cls-7 {
        fill: #fff;
      }

      .cls-3, .cls-4, .cls-5, .cls-6 {
        stroke: #2c2c2c;
      }

      .cls-3, .cls-4, .cls-7, .cls-8 {
        stroke-width: 2px;
      }

      .cls-5 {
        fill: #2c2c2c;
      }

      .cls-10, .cls-7, .cls-8, .cls-9 {
        stroke: red;
      }

      .cls-9 {
        fill: red;
      }

      .cls-11 {
        stroke: none;
      }
    </style>
    <clipPath id="clip-Custom_Size_1">
      <rect width="370" height="150"/>
    </clipPath>
  </defs>
  <g id="Custom_Size_1" data-name="Custom Size – 1" class="cls-1">
    <rect class="cls-13" width="370" height="150"/>
    <path id="Path_1" data-name="Path 1" class="cls-2" d="M845,477.224" transform="translate(-757 -441)"/>
    <path id="Path_2" data-name="Path 2" class="cls-2" d="M841.091,465.429" transform="translate(-757 -441)"/>
    <g id="Group_1" data-name="Group 1" transform="translate(-741 -426)">
      <g id="Group_1-2" data-name="Group 1">
        <g id="Ellipse_1" data-name="Ellipse 1" class="cls-3" transform="translate(819 437)">
          <circle class="cls-11" cx="10" cy="10" r="10"/>
          <circle class="cls-12" cx="10" cy="10" r="9"/>
        </g>
        <line id="Line_1" data-name="Line 1" class="cls-4" y2="16" transform="translate(829.5 456.5)"/>
        <path id="Path_2-2" data-name="Path 2" class="cls-4" d="M849.626,481.359s-3.606.808-7.618-3.758-4.038-8.081-4.038-8.081" transform="translate(-20.626 -19.853)"/>
        <path id="Path_3" data-name="Path 3" class="cls-4" d="M836.626,481.347s3.707.806,7.83-3.751a14.056,14.056,0,0,0,3.708-9.743" transform="translate(-6.626 -19.853)"/>
        <path id="Path_4" data-name="Path 4" class="cls-4" d="M843.141,490.5a14.954,14.954,0,0,0-2.464,5.286,30.841,30.841,0,0,0-1.1,6.652c-.57,8.581-.913,6.388-.913,6.388" transform="translate(-12.803 -18.5)"/>
        <path id="Path_5" data-name="Path 5" class="cls-4" d="M838.662,490.5s3.1,3.356,3.692,11.938.945,6.388.945,6.388" transform="translate(-9.662 -18.5)"/>
      </g>
      <g id="Ellipse_2" data-name="Ellipse 2" class="cls-5" transform="translate(824 445)">
        <circle class="cls-11" cx="1.5" cy="1.5" r="1.5"/>
        <circle class="cls-12" cx="1.5" cy="1.5" r="1"/>
      </g>
      <g id="Ellipse_3" data-name="Ellipse 3" class="cls-5" transform="translate(831 445)">
        <circle class="cls-11" cx="1.5" cy="1.5" r="1.5"/>
        <circle class="cls-12" cx="1.5" cy="1.5" r="1"/>
      </g>
    </g>
    <g id="Group_2" data-name="Group 2" transform="translate(-741 -424)">
      <g id="Group_4" data-name="Group 4">
        <g id="Group_3" data-name="Group 3" transform="translate(64)">
          <g id="Ellipse_1-2" data-name="Ellipse 1" class="cls-3" transform="translate(819 437)">
            <circle class="cls-11" cx="10" cy="10" r="10"/>
            <circle class="cls-12" cx="10" cy="10" r="9"/>
          </g>
          <path id="Path_6" data-name="Path 6" class="cls-4" d="M0,19" transform="translate(829.5 456.5)"/>
        </g>
        <line id="Line_2" data-name="Line 2" class="cls-4" x2="10" y2="19" transform="translate(893.5 456.5)"/>
        <path id="Path_7" data-name="Path 7" class="cls-4" d="M910.9,475.922l-9.783,4.107-4.694-5.324" transform="translate(-15 -16)"/>
        <path id="Path_8" data-name="Path 8" class="cls-4" d="M913.314,477.367l6.207,3.453-10.648,6.033" transform="translate(-17 -16)"/>
        <path id="Path_9" data-name="Path 9" class="cls-4" d="M919.5,490.5l-11.089,3.331,2.092,8.561" transform="translate(-16 -16)"/>
        <path id="Path_10" data-name="Path 10" class="cls-4" d="M920.578,492.113l7.925,8.448,4.259-5.891" transform="translate(-17 -17)"/>
      </g>
      <path id="Path_14" data-name="Path 14" class="cls-6" d="M905.647,458.944l-4.42,1.972,4.42,1.753" transform="translate(-16 -15)"/>
    </g>
    <g id="Group_3-2" data-name="Group 3" transform="translate(-741 -424)">
      <g id="Group_6" data-name="Group 6">
        <g id="Group_5" data-name="Group 5" transform="translate(61)">
          <g id="Group_3-3" data-name="Group 3" transform="translate(64)">
            <g id="Ellipse_1-3" data-name="Ellipse 1" class="cls-3" transform="translate(819 437)">
              <circle class="cls-11" cx="10" cy="10" r="10"/>
              <circle class="cls-12" cx="10" cy="10" r="9"/>
            </g>
            <path id="Path_6-2" data-name="Path 6" class="cls-4" d="M0,19" transform="translate(829.5 456.5)"/>
          </g>
          <line id="Line_2-2" data-name="Line 2" class="cls-4" x2="10" y2="19" transform="translate(893.5 456.5)"/>
          <path id="Path_9-2" data-name="Path 9" class="cls-4" d="M916.026,490.5l-7.614,3.331,1.437,8.561" transform="translate(-12.526 -16)"/>
          <path id="Path_10-2" data-name="Path 10" class="cls-4" d="M920.578,492.113l4.3,7.658,3.281,1.281" transform="translate(-17 -17)"/>
        </g>
        <path id="Path_11" data-name="Path 11" class="cls-4" d="M972.772,476.7s-7.886.61-8.855,11.129" transform="translate(-16 -15)"/>
        <path id="Path_12" data-name="Path 12" class="cls-4" d="M974.078,477.224s8.208,8.536,11.594,5.382" transform="translate(-16 -15)"/>
      </g>
      <path id="Path_15" data-name="Path 15" class="cls-6" d="M905.647,458.944l-4.42,1.972,4.42,1.753" transform="translate(45 -15)"/>
    </g>
    <g id="Group_4-2" data-name="Group 4" transform="translate(-625.854 -424.392)">
      <g id="Group_4-3" data-name="Group 4" transform="translate(881.422 437)">
        <g id="Group_3-4" data-name="Group 3" transform="translate(13.167)">
          <g id="Ellipse_1-4" data-name="Ellipse 1" class="cls-3" transform="translate(0)">
            <ellipse class="cls-11" cx="10.318" cy="10" rx="10.318" ry="10"/>
            <ellipse class="cls-12" cx="10.318" cy="10" rx="9.318" ry="9"/>
          </g>
          <path id="Path_6-3" data-name="Path 6" class="cls-4" d="M0,19" transform="translate(9.802 19.5)"/>
        </g>
        <line id="Line_2-3" data-name="Line 2" class="cls-4" x1="10.318" y2="19" transform="translate(12.652 19.5)"/>
        <path id="Path_7-2" data-name="Path 7" class="cls-4" d="M896.422,475.922l10.094,4.107,4.844-5.324" transform="translate(-875.927 -453)"/>
        <path id="Path_8-2" data-name="Path 8" class="cls-4" d="M915.276,477.367l-6.4,3.453,10.987,6.033" transform="translate(-895.21 -453)"/>
        <path id="Path_9-3" data-name="Path 9" class="cls-4" d="M908.411,490.5l11.442,3.331-2.159,8.561" transform="translate(-895.759 -453)"/>
        <path id="Path_10-3" data-name="Path 10" class="cls-4" d="M933.149,492.113l-8.177,8.448-4.394-5.891" transform="translate(-920.578 -454)"/>
      </g>
      <path id="Path_14-2" data-name="Path 14" class="cls-6" d="M901.227,458.944l4.561,1.972-4.561,1.753" transform="translate(7.141 -15)"/>
    </g>
    <g id="Group_5-2" data-name="Group 5" transform="translate(-625 -424.117)">
      <g id="Group_6-2" data-name="Group 6" transform="translate(944 437)">
        <g id="Group_5-3" data-name="Group 5">
          <g id="Group_3-5" data-name="Group 3" transform="translate(8.112)">
            <g id="Ellipse_1-5" data-name="Ellipse 1" class="cls-3" transform="translate(0)">
              <circle class="cls-11" cx="9.944" cy="9.944" r="9.944"/>
              <circle class="cls-12" cx="9.944" cy="9.944" r="8.944"/>
            </g>
            <path id="Path_6-4" data-name="Path 6" class="cls-4" d="M0,19" transform="translate(9.447 19.285)"/>
          </g>
          <line id="Line_2-4" data-name="Line 2" class="cls-4" x1="9.944" y2="18.894" transform="translate(7.614 19.391)"/>
          <path id="Path_9-4" data-name="Path 9" class="cls-4" d="M908.411,490.5l7.572,3.313-1.429,8.513" transform="translate(-900.797 -453.209)"/>
          <path id="Path_10-4" data-name="Path 10" class="cls-4" d="M928.115,492.113l-4.274,7.616L920.578,501" transform="translate(-920.578 -454.212)"/>
        </g>
        <path id="Path_11-2" data-name="Path 11" class="cls-4" d="M963.917,476.7s7.842.607,8.806,11.067" transform="translate(-948.618 -452.138)"/>
        <path id="Path_12-2" data-name="Path 12" class="cls-4" d="M985.608,477.224s-8.163,8.489-11.53,5.352" transform="translate(-971.608 -452.141)"/>
      </g>
      <path id="Path_15-2" data-name="Path 15" class="cls-6" d="M901.227,458.944l4.4,1.961-4.4,1.743" transform="translate(64.164 -15.039)"/>
    </g>
    <g id="Group_6-3" data-name="Group 6" transform="translate(-796 -425.116)">
      <g id="Group_1-3" data-name="Group 1">
        <g id="Ellipse_1-6" data-name="Ellipse 1" class="cls-3" transform="translate(819 437)">
          <circle class="cls-11" cx="10" cy="10" r="10"/>
          <circle class="cls-12" cx="10" cy="10" r="9"/>
        </g>
        <line id="Line_1-2" data-name="Line 1" class="cls-4" y2="19" transform="translate(829.5 456.5)"/>
        <path id="Path_2-3" data-name="Path 2" class="cls-4" d="M845,474.645s-2.323-1.214-4.907,5.65-3.467,3.959-3.467,3.959" transform="translate(-16 -15)"/>
        <path id="Path_3-2" data-name="Path 3" class="cls-4" d="M836.626,474.645s2.328-1.217,4.919,5.663,3.475,3.969,3.475,3.969" transform="translate(-6.626 -15.012)"/>
        <path id="Path_4-2" data-name="Path 4" class="cls-4" d="M845,490.5a10.259,10.259,0,0,0-5.047,7.465c-.806,5.366-1.292,3.994-1.292,3.994" transform="translate(-15 -15)"/>
        <path id="Path_5-2" data-name="Path 5" class="cls-4" d="M838.662,490.5a10.259,10.259,0,0,1,5.047,7.465c.806,5.366,1.292,3.994,1.292,3.994" transform="translate(-9.662 -15)"/>
      </g>
      <g id="Ellipse_2-2" data-name="Ellipse 2" class="cls-5" transform="translate(824 445)">
        <circle class="cls-11" cx="1.5" cy="1.5" r="1.5"/>
        <circle class="cls-12" cx="1.5" cy="1.5" r="1"/>
      </g>
      <g id="Ellipse_3-2" data-name="Ellipse 3" class="cls-5" transform="translate(831 445)">
        <circle class="cls-11" cx="1.5" cy="1.5" r="1.5"/>
        <circle class="cls-12" cx="1.5" cy="1.5" r="1"/>
      </g>
    </g>
    <g id="Group_7" data-name="Group 7" transform="translate(-741 -350)">
      <g id="Group_1-4" data-name="Group 1">
        <g id="Ellipse_1-7" data-name="Ellipse 1" class="cls-7" transform="translate(819 437)">
          <circle class="cls-11" cx="10" cy="10" r="10"/>
          <circle class="cls-12" cx="10" cy="10" r="9"/>
        </g>
        <line id="Line_1-3" data-name="Line 1" class="cls-8" y2="16" transform="translate(829.5 456.5)"/>
        <path id="Path_2-4" data-name="Path 2" class="cls-8" d="M849.626,481.359s-3.606.808-7.618-3.758-4.038-8.081-4.038-8.081" transform="translate(-20.626 -19.853)"/>
        <path id="Path_3-3" data-name="Path 3" class="cls-8" d="M836.626,481.347s3.707.806,7.83-3.751a14.056,14.056,0,0,0,3.708-9.743" transform="translate(-6.626 -19.853)"/>
        <path id="Path_4-3" data-name="Path 4" class="cls-8" d="M843.141,490.5a14.954,14.954,0,0,0-2.464,5.286,30.841,30.841,0,0,0-1.1,6.652c-.57,8.581-.913,6.388-.913,6.388" transform="translate(-12.803 -18.5)"/>
        <path id="Path_5-3" data-name="Path 5" class="cls-8" d="M838.662,490.5s3.1,3.356,3.692,11.938.945,6.388.945,6.388" transform="translate(-9.662 -18.5)"/>
      </g>
      <g id="Ellipse_2-3" data-name="Ellipse 2" class="cls-9" transform="translate(824 445)">
        <circle class="cls-11" cx="1.5" cy="1.5" r="1.5"/>
        <circle class="cls-12" cx="1.5" cy="1.5" r="1"/>
      </g>
      <g id="Ellipse_3-3" data-name="Ellipse 3" class="cls-9" transform="translate(831 445)">
        <circle class="cls-11" cx="1.5" cy="1.5" r="1.5"/>
        <circle class="cls-12" cx="1.5" cy="1.5" r="1"/>
      </g>
    </g>
    <g id="Group_8" data-name="Group 8" transform="translate(-741 -348)">
      <g id="Group_4-4" data-name="Group 4">
        <g id="Group_3-6" data-name="Group 3" transform="translate(64)">
          <g id="Ellipse_1-8" data-name="Ellipse 1" class="cls-7" transform="translate(819 437)">
            <circle class="cls-11" cx="10" cy="10" r="10"/>
            <circle class="cls-12" cx="10" cy="10" r="9"/>
          </g>
          <path id="Path_6-5" data-name="Path 6" class="cls-8" d="M0,19" transform="translate(829.5 456.5)"/>
        </g>
        <line id="Line_2-5" data-name="Line 2" class="cls-8" x2="10" y2="19" transform="translate(893.5 456.5)"/>
        <path id="Path_7-3" data-name="Path 7" class="cls-8" d="M910.9,475.922l-9.783,4.107-4.694-5.324" transform="translate(-15 -16)"/>
        <path id="Path_8-3" data-name="Path 8" class="cls-8" d="M913.314,477.367l6.207,3.453-10.648,6.033" transform="translate(-17 -16)"/>
        <path id="Path_9-5" data-name="Path 9" class="cls-8" d="M919.5,490.5l-11.089,3.331,2.092,8.561" transform="translate(-16 -16)"/>
        <path id="Path_10-5" data-name="Path 10" class="cls-8" d="M920.578,492.113l7.925,8.448,4.259-5.891" transform="translate(-17 -17)"/>
      </g>
      <path id="Path_14-3" data-name="Path 14" class="cls-10" d="M905.647,458.944l-4.42,1.972,4.42,1.753" transform="translate(-16 -15)"/>
    </g>
    <g id="Group_9" data-name="Group 9" transform="translate(-741 -348)">
      <g id="Group_6-4" data-name="Group 6">
        <g id="Group_5-4" data-name="Group 5" transform="translate(61)">
          <g id="Group_3-7" data-name="Group 3" transform="translate(64)">
            <g id="Ellipse_1-9" data-name="Ellipse 1" class="cls-7" transform="translate(819 437)">
              <circle class="cls-11" cx="10" cy="10" r="10"/>
              <circle class="cls-12" cx="10" cy="10" r="9"/>
            </g>
            <path id="Path_6-6" data-name="Path 6" class="cls-8" d="M0,19" transform="translate(829.5 456.5)"/>
          </g>
          <line id="Line_2-6" data-name="Line 2" class="cls-8" x2="10" y2="19" transform="translate(893.5 456.5)"/>
          <path id="Path_9-6" data-name="Path 9" class="cls-8" d="M916.026,490.5l-7.614,3.331,1.437,8.561" transform="translate(-12.526 -16)"/>
          <path id="Path_10-6" data-name="Path 10" class="cls-8" d="M920.578,492.113l4.3,7.658,3.281,1.281" transform="translate(-17 -17)"/>
        </g>
        <path id="Path_11-3" data-name="Path 11" class="cls-8" d="M972.772,476.7s-7.886.61-8.855,11.129" transform="translate(-16 -15)"/>
        <path id="Path_12-3" data-name="Path 12" class="cls-8" d="M974.078,477.224s8.208,8.536,11.594,5.382" transform="translate(-16 -15)"/>
      </g>
      <path id="Path_15-3" data-name="Path 15" class="cls-10" d="M905.647,458.944l-4.42,1.972,4.42,1.753" transform="translate(45 -15)"/>
    </g>
    <g id="Group_10" data-name="Group 10" transform="translate(-625.854 -348.392)">
      <g id="Group_4-5" data-name="Group 4" transform="translate(881.422 437)">
        <g id="Group_3-8" data-name="Group 3" transform="translate(13.167)">
          <g id="Ellipse_1-10" data-name="Ellipse 1" class="cls-7" transform="translate(0)">
            <ellipse class="cls-11" cx="10.318" cy="10" rx="10.318" ry="10"/>
            <ellipse class="cls-12" cx="10.318" cy="10" rx="9.318" ry="9"/>
          </g>
          <path id="Path_6-7" data-name="Path 6" class="cls-8" d="M0,19" transform="translate(9.802 19.5)"/>
        </g>
        <line id="Line_2-7" data-name="Line 2" class="cls-8" x1="10.318" y2="19" transform="translate(12.652 19.5)"/>
        <path id="Path_7-4" data-name="Path 7" class="cls-8" d="M896.422,475.922l10.094,4.107,4.844-5.324" transform="translate(-875.927 -453)"/>
        <path id="Path_8-4" data-name="Path 8" class="cls-8" d="M915.276,477.367l-6.4,3.453,10.987,6.033" transform="translate(-895.21 -453)"/>
        <path id="Path_9-7" data-name="Path 9" class="cls-8" d="M908.411,490.5l11.442,3.331-2.159,8.561" transform="translate(-895.759 -453)"/>
        <path id="Path_10-7" data-name="Path 10" class="cls-8" d="M933.149,492.113l-8.177,8.448-4.394-5.891" transform="translate(-920.578 -454)"/>
      </g>
      <path id="Path_14-4" data-name="Path 14" class="cls-10" d="M901.227,458.944l4.561,1.972-4.561,1.753" transform="translate(7.141 -15)"/>
    </g>
    <g id="Group_11" data-name="Group 11" transform="translate(-625 -348.117)">
      <g id="Group_6-5" data-name="Group 6" transform="translate(944 437)">
        <g id="Group_5-5" data-name="Group 5">
          <g id="Group_3-9" data-name="Group 3" transform="translate(8.112)">
            <g id="Ellipse_1-11" data-name="Ellipse 1" class="cls-7" transform="translate(0)">
              <circle class="cls-11" cx="9.944" cy="9.944" r="9.944"/>
              <circle class="cls-12" cx="9.944" cy="9.944" r="8.944"/>
            </g>
            <path id="Path_6-8" data-name="Path 6" class="cls-8" d="M0,19" transform="translate(9.447 19.285)"/>
          </g>
          <line id="Line_2-8" data-name="Line 2" class="cls-8" x1="9.944" y2="18.894" transform="translate(7.614 19.391)"/>
          <path id="Path_9-8" data-name="Path 9" class="cls-8" d="M908.411,490.5l7.572,3.313-1.429,8.513" transform="translate(-900.797 -453.209)"/>
          <path id="Path_10-8" data-name="Path 10" class="cls-8" d="M928.115,492.113l-4.274,7.616L920.578,501" transform="translate(-920.578 -454.212)"/>
        </g>
        <path id="Path_11-4" data-name="Path 11" class="cls-8" d="M963.917,476.7s7.842.607,8.806,11.067" transform="translate(-948.618 -452.138)"/>
        <path id="Path_12-4" data-name="Path 12" class="cls-8" d="M985.608,477.224s-8.163,8.489-11.53,5.352" transform="translate(-971.608 -452.141)"/>
      </g>
      <path id="Path_15-4" data-name="Path 15" class="cls-10" d="M901.227,458.944l4.4,1.961-4.4,1.743" transform="translate(64.164 -15.039)"/>
    </g>
    <g id="Group_12" data-name="Group 12" transform="translate(-796 -349.116)">
      <g id="Group_1-5" data-name="Group 1">
        <g id="Ellipse_1-12" data-name="Ellipse 1" class="cls-7" transform="translate(819 437)">
          <circle class="cls-11" cx="10" cy="10" r="10"/>
          <circle class="cls-12" cx="10" cy="10" r="9"/>
        </g>
        <line id="Line_1-4" data-name="Line 1" class="cls-8" y2="19" transform="translate(829.5 456.5)"/>
        <path id="Path_2-5" data-name="Path 2" class="cls-8" d="M845,474.645s-2.323-1.214-4.907,5.65-3.467,3.959-3.467,3.959" transform="translate(-16 -15)"/>
        <path id="Path_3-4" data-name="Path 3" class="cls-8" d="M836.626,474.645s2.328-1.217,4.919,5.663,3.475,3.969,3.475,3.969" transform="translate(-6.626 -15.012)"/>
        <path id="Path_4-4" data-name="Path 4" class="cls-8" d="M845,490.5a10.259,10.259,0,0,0-5.047,7.465c-.806,5.366-1.292,3.994-1.292,3.994" transform="translate(-15 -15)"/>
        <path id="Path_5-4" data-name="Path 5" class="cls-8" d="M838.662,490.5a10.259,10.259,0,0,1,5.047,7.465c.806,5.366,1.292,3.994,1.292,3.994" transform="translate(-9.662 -15)"/>
      </g>
      <g id="Ellipse_2-4" data-name="Ellipse 2" class="cls-9" transform="translate(824 445)">
        <circle class="cls-11" cx="1.5" cy="1.5" r="1.5"/>
        <circle class="cls-12" cx="1.5" cy="1.5" r="1"/>
      </g>
      <g id="Ellipse_3-4" data-name="Ellipse 3" class="cls-9" transform="translate(831 445)">
        <circle class="cls-11" cx="1.5" cy="1.5" r="1.5"/>
        <circle class="cls-12" cx="1.5" cy="1.5" r="1"/>
      </g>
    </g>
  </g>
</svg>
